<svg width="966" height="644" viewBox="0 0 966 644" fill="none" xmlns="http://www.w3.org/2000/svg">
<g clip-path="url(#clip0_9917_2160)">
<mask id="mask0_9917_2160" style="mask-type:luminance" maskUnits="userSpaceOnUse" x="0" y="197" width="328" height="227">
<path d="M327.649 197.719H0V423.684H327.649V197.719Z" fill="white"/>
</mask>
<g mask="url(#mask0_9917_2160)">
<path fill-rule="evenodd" clip-rule="evenodd" d="M48.0683 210.452C48.0683 204.212 43.0099 199.154 36.7701 199.154H12.7221C6.4822 199.154 1.42383 204.212 1.42383 210.452V410.949C1.42383 417.189 6.4822 422.247 12.7221 422.247H41.6739C45.6412 422.247 49.3178 420.167 51.3601 416.765L114.399 311.783C120.297 301.961 135.383 306.142 135.383 317.599V413.143C135.383 418.171 139.46 422.247 144.488 422.247H182.028H184.738C188.706 422.247 192.382 420.167 194.424 416.765L257.18 312.254C263.078 302.432 278.164 306.614 278.164 318.071V410.949C278.164 417.189 283.223 422.247 289.463 422.247H313.51C319.75 422.247 324.809 417.189 324.809 410.949V199.702C324.809 199.653 324.822 199.605 324.848 199.563L324.947 199.398C325.011 199.291 324.934 199.154 324.809 199.154H284.566C280.595 199.154 276.915 201.238 274.874 204.645L203.018 324.567C197.126 334.399 182.028 330.222 182.028 318.76V199.156C182.028 199.156 182.028 199.156 182.028 199.156L135.385 199.154C135.384 199.154 135.385 199.153 135.385 199.154L69.0526 309.621C63.1549 319.443 48.0683 315.261 48.0683 303.804V210.452Z" fill="black"/>
<path d="M12.7224 201.978H36.7704V196.329H12.7224V201.978ZM4.24873 410.949V210.452H-1.40039V410.949H4.24873ZM41.6743 419.423H12.7224V425.072H41.6743V419.423ZM111.978 310.328L48.9389 415.311L53.782 418.219L116.821 313.237L111.978 310.328ZM138.208 413.142V317.599H132.559V413.142H138.208ZM182.028 419.423H144.488V425.072H182.028V419.423ZM184.738 419.423H182.028V425.072H184.738V419.423ZM254.759 310.8L192.003 415.311L196.846 418.219L259.602 313.708L254.759 310.8ZM275.34 318.071V410.949H280.989V318.071H275.34ZM289.463 425.072H313.511V419.423H289.463V425.072ZM327.634 410.949V199.702H321.984V410.949H327.634ZM322.526 197.944L322.426 198.109L327.269 201.017L327.369 200.852L322.526 197.944ZM284.566 201.978H324.809V196.329H284.566V201.978ZM205.441 326.018L277.298 206.096L272.452 203.193L200.595 323.115L205.441 326.018ZM179.203 199.156V318.76H184.853V199.156H179.203ZM135.385 201.978H182.028V196.329H135.385V201.978ZM71.4747 311.075L137.805 200.61L132.962 197.702L66.6317 308.166L71.4747 311.075ZM45.2441 210.452V303.804H50.8932V210.452H45.2441ZM132.559 199.155C132.559 198.644 132.698 198.142 132.962 197.702L137.805 200.61C138.069 200.169 138.208 199.667 138.208 199.155L132.559 199.155ZM135.385 196.329C133.824 196.329 132.559 197.595 132.559 199.155L138.208 199.155C138.208 200.715 136.944 201.978 135.385 201.978V196.329ZM184.45 200.609C185.581 198.726 184.225 196.329 182.028 196.329V201.978C179.833 201.978 178.477 199.583 179.607 197.701L184.45 200.609ZM184.853 199.156C184.853 199.668 184.714 200.171 184.45 200.609L179.607 197.701C179.344 198.14 179.203 198.644 179.203 199.156H184.853ZM200.595 323.115C196.177 330.489 184.853 327.357 184.853 318.76H179.203C179.203 333.088 198.077 338.309 205.441 326.018L200.595 323.115ZM284.566 196.329C279.603 196.329 275.003 198.935 272.452 203.193L277.298 206.096C278.828 203.542 281.588 201.978 284.566 201.978V196.329ZM327.369 200.852C328.563 198.862 327.13 196.329 324.809 196.329V201.978C322.739 201.978 321.46 199.719 322.526 197.944L327.369 200.852ZM275.34 410.949C275.34 418.749 281.663 425.072 289.463 425.072V419.423C284.783 419.423 280.989 415.629 280.989 410.949H275.34ZM259.602 313.708C264.026 306.342 275.34 309.478 275.34 318.071H280.989C280.989 303.749 262.131 298.522 254.759 310.8L259.602 313.708ZM184.738 425.072C189.698 425.072 194.293 422.471 196.846 418.219L192.003 415.311C190.471 417.862 187.714 419.423 184.738 419.423V425.072ZM132.559 413.142C132.559 419.731 137.9 425.072 144.488 425.072V419.423C141.02 419.423 138.208 416.611 138.208 413.142H132.559ZM116.821 313.237C121.245 305.87 132.559 309.006 132.559 317.599H138.208C138.208 303.278 119.35 298.051 111.978 310.328L116.821 313.237ZM41.6743 425.072C46.6334 425.072 51.2291 422.471 53.782 418.219L48.9389 415.311C47.4072 417.862 44.6497 419.423 41.6743 419.423V425.072ZM-1.40039 410.949C-1.40039 418.749 4.92261 425.072 12.7224 425.072V419.423C8.04255 419.423 4.24873 415.629 4.24873 410.949H-1.40039ZM327.634 199.702C327.634 200.165 327.508 200.62 327.269 201.017L322.426 198.109C322.137 198.59 321.984 199.141 321.984 199.702H327.634ZM36.7704 201.978C41.4503 201.978 45.2441 205.772 45.2441 210.452H50.8932C50.8932 202.652 44.5702 196.329 36.7704 196.329V201.978ZM313.511 425.072C321.311 425.072 327.634 418.749 327.634 410.949H321.984C321.984 415.629 318.191 419.423 313.511 419.423V425.072ZM66.6317 308.166C62.2079 315.533 50.8932 312.397 50.8932 303.804H45.2441C45.2441 318.125 64.102 323.352 71.4747 311.075L66.6317 308.166ZM12.7224 196.329C4.9226 196.329 -1.40039 202.652 -1.40039 210.452H4.24873C4.24873 205.772 8.04255 201.978 12.7224 201.978V196.329Z" fill="black"/>
</g>
<g filter="url(#filter0_d_9917_2160)">
<path d="M375.412 204.497L391.682 204.361L411.883 279.608L433.033 204.497H447.811L468.284 279.608L488.756 204.497H504.619L477.503 299.402H459.2L439.812 229.579L420.831 299.402H402.528L375.412 204.497ZM513.189 204.497H575.148V218.326H528.781V244.628H567.013V258.051H528.781V285.573H576.775V299.402H513.189V204.497ZM586.876 204.497H607.077L637.447 279.201L667.274 204.497H687.069V299.402H672.019V229.579L643.548 299.402H630.397L601.925 229.579V299.402H586.876V204.497ZM701.734 204.497H717.325V299.402H701.734V204.497ZM731.99 299.402V204.497H746.226L792.459 271.744V204.497H807.779V299.402H793.543L747.311 232.155V299.402H731.99ZM814.761 299.402L850.283 204.497H868.857L904.243 299.402H887.567L878.619 275.947H839.708L830.895 299.402H814.761ZM844.046 262.66H874.28L859.096 221.309L844.046 262.66ZM911.265 299.402V204.497H926.857V285.573H967.666V299.402H911.265ZM381.513 434.981V340.076H397.105V421.152H437.914V434.981H381.513ZM440.455 434.981L475.977 340.076H494.551L529.937 434.981H513.261L504.313 411.526H465.402L456.589 434.981H440.455ZM469.74 398.239H499.974L484.789 356.888L469.74 398.239ZM571.804 340.076C582.108 340.076 590.243 342.245 595.937 346.584C601.631 350.922 604.614 357.023 604.614 364.751C604.614 370.446 602.987 375.191 600.004 378.851C597.022 382.512 592.683 384.952 586.989 386.173C601.089 388.613 608.275 396.07 608.275 408.543C608.275 416.814 605.156 423.321 599.055 427.931C592.954 432.676 584.277 434.981 573.024 434.981H536.958V340.076H571.804ZM552.549 380.343H572.211C577.498 380.343 581.566 379.123 584.548 376.682C587.531 374.242 589.022 370.988 589.022 366.649C589.022 362.446 587.531 359.192 584.548 356.752C581.566 354.312 577.498 353.091 572.211 353.091H552.549V380.343ZM552.549 421.83H573.16C579.261 421.83 584.006 420.61 587.26 418.169C590.514 415.729 592.276 412.204 592.276 407.73C592.276 403.12 590.514 399.595 587.26 397.019C583.87 394.579 579.125 393.223 573.16 393.223H552.549V421.83ZM631.837 404.069C632.244 409.763 634.549 414.238 638.616 417.627C642.683 421.017 648.107 422.643 654.75 422.643C660.444 422.643 665.189 421.423 668.715 418.983C672.24 416.542 674.138 413.017 674.138 408.543C674.138 405.425 673.053 402.984 671.155 401.086C669.257 399.188 666.545 397.833 663.291 396.748C659.902 395.799 655.157 394.714 649.191 393.63C642.955 392.545 637.667 391.189 633.328 389.427C628.99 387.664 625.329 384.952 622.618 381.292C619.906 377.767 618.55 373.022 618.55 367.056C618.55 361.633 619.906 356.888 622.753 352.549C625.6 348.346 629.532 345.092 634.684 342.652C639.836 340.347 645.666 339.127 652.31 339.127C659.088 339.127 665.054 340.483 670.477 342.923C675.765 345.499 679.968 349.024 683.086 353.363C686.069 357.837 687.831 362.853 688.102 368.547H672.782C672.24 363.667 670.07 359.735 666.41 356.752C662.614 353.769 658.004 352.278 652.31 352.278C646.751 352.278 642.277 353.498 639.023 355.939C635.769 358.379 634.142 361.633 634.142 365.971C634.142 369.09 635.091 371.53 636.989 373.293C638.887 375.191 641.599 376.547 644.853 377.36C648.107 378.309 652.716 379.258 658.817 380.343C664.918 381.427 670.206 382.919 674.68 384.681C679.019 386.579 682.679 389.155 685.526 392.68C688.238 396.206 689.729 400.951 689.729 406.645C689.729 412.339 688.238 417.356 685.255 421.694C682.272 426.169 678.069 429.694 672.782 432.134C667.359 434.574 661.393 435.795 654.614 435.795C647.022 435.795 640.514 434.439 634.82 431.727C629.126 429.016 624.651 425.355 621.398 420.474C618.144 415.593 616.517 410.035 616.517 403.798L631.837 404.069Z" fill="black"/>
</g>
</g>
<defs>
<filter id="filter0_d_9917_2160" x="339.412" y="168.361" width="664.254" height="303.433" filterUnits="userSpaceOnUse" color-interpolation-filters="sRGB">
<feFlood flood-opacity="0" result="BackgroundImageFix"/>
<feColorMatrix in="SourceAlpha" type="matrix" values="0 0 0 0 0 0 0 0 0 0 0 0 0 0 0 0 0 0 127 0" result="hardAlpha"/>
<feOffset/>
<feGaussianBlur stdDeviation="18"/>
<feComposite in2="hardAlpha" operator="out"/>
<feColorMatrix type="matrix" values="0 0 0 0 0 0 0 0 0 0 0 0 0 0 0 0 0 0 0.1 0"/>
<feBlend mode="normal" in2="BackgroundImageFix" result="effect1_dropShadow_9917_2160"/>
<feBlend mode="normal" in="SourceGraphic" in2="effect1_dropShadow_9917_2160" result="shape"/>
</filter>
<clipPath id="clip0_9917_2160">
<rect width="966" height="644" fill="white"/>
</clipPath>
</defs>
</svg>
