<svg width="1440" height="992" viewBox="0 0 1440 992" fill="none" xmlns="http://www.w3.org/2000/svg">
<mask id="mask0_10059_852" style="mask-type:luminance" maskUnits="userSpaceOnUse" x="360" y="248" width="720" height="496">
<path d="M1079.52 248.011H360.096V743.956H1079.52V248.011Z" fill="white"/>
</mask>
<g mask="url(#mask0_10059_852)">
<path fill-rule="evenodd" clip-rule="evenodd" d="M465.638 275.956C465.638 262.261 454.532 251.159 440.831 251.159H388.028C374.327 251.159 363.221 262.261 363.221 275.956V716.004C363.221 729.7 374.327 740.802 388.028 740.802H451.598C460.309 740.802 468.382 736.235 472.866 728.77L611.282 498.355C624.231 476.798 657.357 485.975 657.357 511.121V720.819C657.357 731.856 666.307 740.802 677.348 740.802H759.774H765.725C774.436 740.802 782.509 736.235 786.993 728.77L924.787 499.391C937.737 477.833 970.862 487.011 970.862 512.156V716.004C970.862 729.7 981.969 740.802 995.67 740.802H1048.47C1062.17 740.802 1073.28 729.7 1073.28 716.004V252.363C1073.28 252.255 1073.31 252.15 1073.36 252.058L1073.58 251.695C1073.72 251.459 1073.55 251.159 1073.28 251.159H984.918C976.198 251.159 968.12 255.734 963.638 263.21L805.862 526.413C792.926 547.994 759.774 538.826 759.774 513.669V251.164C759.775 251.163 759.775 251.164 759.774 251.164L657.359 251.159C657.358 251.159 657.359 251.158 657.359 251.159L511.714 493.61C498.764 515.168 465.638 505.99 465.638 480.845V275.956Z" fill="white"/>
<path d="M388.028 257.358H440.831V244.96H388.028V257.358ZM369.422 716.004V275.956H357.019V716.004H369.422ZM451.598 734.602H388.028V747.001H451.598V734.602ZM605.964 495.164L467.549 725.579L478.183 731.962L616.598 501.547L605.964 495.164ZM663.559 720.819V511.121H651.155V720.819H663.559ZM759.774 734.602H677.348V747.001H759.774V734.602ZM765.725 734.602H759.774V747.001H765.725V734.602ZM919.469 496.199L781.676 725.579L792.31 731.962L930.103 502.582L919.469 496.199ZM964.66 512.156V716.004H977.064V512.156H964.66ZM995.67 747.001H1048.47V734.602H995.67V747.001ZM1079.48 716.004V252.363H1067.08V716.004H1079.48ZM1068.27 248.503L1068.05 248.867L1078.68 255.249L1078.9 254.886L1068.27 248.503ZM984.918 257.358H1073.28V244.96H984.918V257.358ZM811.181 529.6L968.958 266.397L958.318 260.024L800.541 523.227L811.181 529.6ZM753.572 251.164V513.669H765.976V251.164H753.572ZM657.359 257.358H759.774V244.96H657.359V257.358ZM517.031 496.802L662.673 254.355L652.039 247.973L506.397 490.419L517.031 496.802ZM459.436 275.956V480.845H471.84V275.956H459.436ZM651.155 251.162C651.155 250.039 651.459 248.938 652.039 247.973L662.673 254.355C663.253 253.388 663.559 252.285 663.559 251.163L651.155 251.162ZM657.359 244.96C653.932 244.96 651.155 247.737 651.155 251.162L663.559 251.163C663.559 254.585 660.783 257.358 657.359 257.358V244.96ZM765.091 254.354C767.575 250.22 764.598 244.96 759.774 244.96V257.358C754.954 257.358 751.977 252.101 754.459 247.97L765.091 254.354ZM765.976 251.164C765.976 252.287 765.671 253.391 765.091 254.354L754.459 247.97C753.879 248.935 753.572 250.039 753.572 251.164H765.976ZM800.541 523.227C790.84 539.412 765.976 532.537 765.976 513.669H753.572C753.572 545.116 795.012 556.576 811.181 529.6L800.541 523.227ZM984.918 244.96C974.019 244.96 963.92 250.679 958.318 260.024L968.958 266.397C972.318 260.79 978.378 257.358 984.918 257.358V244.96ZM1078.9 254.886C1081.52 250.518 1078.38 244.96 1073.28 244.96V257.358C1068.73 257.358 1065.92 252.399 1068.27 248.503L1078.9 254.886ZM964.66 716.004C964.66 733.125 978.544 747.001 995.67 747.001V734.602C985.394 734.602 977.064 726.277 977.064 716.004H964.66ZM930.103 502.582C939.816 486.414 964.66 493.297 964.66 512.156H977.064C977.064 480.725 935.657 469.252 919.469 496.199L930.103 502.582ZM765.725 747.001C776.614 747.001 786.705 741.293 792.31 731.962L781.676 725.579C778.312 731.178 772.258 734.602 765.725 734.602V747.001ZM651.155 720.819C651.155 735.279 662.881 747.001 677.348 747.001V734.602C669.732 734.602 663.559 728.432 663.559 720.819H651.155ZM616.598 501.547C626.311 485.379 651.155 492.261 651.155 511.121H663.559C663.559 479.689 622.152 468.217 605.964 495.164L616.598 501.547ZM451.598 747.001C462.487 747.001 472.577 741.293 478.183 731.962L467.549 725.579C464.186 731.178 458.131 734.602 451.598 734.602V747.001ZM357.019 716.004C357.019 733.125 370.902 747.001 388.028 747.001V734.602C377.753 734.602 369.422 726.277 369.422 716.004H357.019ZM1079.48 252.363C1079.48 253.38 1079.2 254.378 1078.68 255.249L1068.05 248.867C1067.41 249.923 1067.08 251.132 1067.08 252.363H1079.48ZM440.831 257.358C451.106 257.358 459.436 265.685 459.436 275.956H471.84C471.84 258.837 457.957 244.96 440.831 244.96V257.358ZM1048.47 747.001C1065.6 747.001 1079.48 733.125 1079.48 716.004H1067.08C1067.08 726.277 1058.75 734.602 1048.47 734.602V747.001ZM506.397 490.419C496.684 506.587 471.84 499.704 471.84 480.845H459.436C459.436 512.277 500.843 523.749 517.031 496.802L506.397 490.419ZM388.028 244.96C370.902 244.96 357.019 258.837 357.019 275.956H369.422C369.422 265.685 377.753 257.358 388.028 257.358V244.96Z" fill="white"/>
</g>
</svg>
