<svg width="1246" height="644" viewBox="0 0 1246 644" fill="none" xmlns="http://www.w3.org/2000/svg">
<mask id="mask0_10059_853" style="mask-type:luminance" maskUnits="userSpaceOnUse" x="140" y="197" width="328" height="227">
<path d="M467.649 197.719H140V423.684H467.649V197.719Z" fill="white"/>
</mask>
<g mask="url(#mask0_10059_853)">
<path fill-rule="evenodd" clip-rule="evenodd" d="M188.068 210.452C188.068 204.212 183.01 199.154 176.77 199.154H152.722C146.482 199.154 141.424 204.212 141.424 210.452V410.949C141.424 417.189 146.482 422.247 152.722 422.247H181.674C185.641 422.247 189.318 420.166 191.36 416.765L254.399 311.782C260.297 301.96 275.383 306.142 275.383 317.599V413.142C275.383 418.171 279.46 422.247 284.488 422.247H322.028H324.738C328.706 422.247 332.382 420.166 334.424 416.765L397.18 312.254C403.078 302.432 418.164 306.613 418.164 318.07V410.949C418.164 417.189 423.223 422.247 429.463 422.247H453.51C459.75 422.247 464.809 417.189 464.809 410.949V199.702C464.809 199.653 464.822 199.605 464.848 199.563L464.947 199.398C465.011 199.29 464.934 199.154 464.809 199.154H424.566C420.595 199.154 416.915 201.238 414.874 204.645L343.018 324.566C337.126 334.399 322.028 330.222 322.028 318.76V199.156C322.028 199.155 322.028 199.156 322.028 199.156L275.385 199.154C275.384 199.154 275.385 199.153 275.385 199.154L209.053 309.62C203.155 319.443 188.068 315.261 188.068 303.804V210.452Z" fill="white"/>
<path d="M152.722 201.978H176.77V196.329H152.722V201.978ZM144.249 410.949V210.452H138.6V410.949H144.249ZM181.674 419.423H152.722V425.072H181.674V419.423ZM251.978 310.328L188.939 415.311L193.782 418.219L256.821 313.237L251.978 310.328ZM278.208 413.142V317.599H272.559V413.142H278.208ZM322.028 419.423H284.488V425.072H322.028V419.423ZM324.738 419.423H322.028V425.072H324.738V419.423ZM394.759 310.8L332.003 415.311L336.846 418.219L399.602 313.708L394.759 310.8ZM415.34 318.071V410.949H420.989V318.071H415.34ZM429.463 425.072H453.511V419.423H429.463V425.072ZM467.634 410.949V199.702H461.984V410.949H467.634ZM462.526 197.944L462.426 198.109L467.269 201.017L467.369 200.852L462.526 197.944ZM424.566 201.978H464.809V196.329H424.566V201.978ZM345.441 326.018L417.298 206.096L412.452 203.193L340.595 323.115L345.441 326.018ZM319.203 199.156V318.76H324.853V199.156H319.203ZM275.385 201.978H322.028V196.329H275.385V201.978ZM211.475 311.075L277.805 200.61L272.962 197.702L206.632 308.166L211.475 311.075ZM185.244 210.452V303.804H190.893V210.452H185.244ZM272.559 199.155C272.559 198.644 272.698 198.142 272.962 197.702L277.805 200.61C278.069 200.169 278.208 199.667 278.208 199.155L272.559 199.155ZM275.385 196.329C273.824 196.329 272.559 197.595 272.559 199.155L278.208 199.155C278.208 200.715 276.944 201.978 275.385 201.978V196.329ZM324.45 200.609C325.581 198.726 324.225 196.329 322.028 196.329V201.978C319.833 201.978 318.477 199.583 319.607 197.701L324.45 200.609ZM324.853 199.156C324.853 199.668 324.714 200.171 324.45 200.609L319.607 197.701C319.344 198.14 319.203 198.644 319.203 199.156H324.853ZM340.595 323.115C336.177 330.489 324.853 327.357 324.853 318.76H319.203C319.203 333.088 338.077 338.309 345.441 326.018L340.595 323.115ZM424.566 196.329C419.603 196.329 415.003 198.935 412.452 203.193L417.298 206.096C418.828 203.542 421.588 201.978 424.566 201.978V196.329ZM467.369 200.852C468.563 198.862 467.13 196.329 464.809 196.329V201.978C462.739 201.978 461.46 199.719 462.526 197.944L467.369 200.852ZM415.34 410.949C415.34 418.749 421.663 425.072 429.463 425.072V419.423C424.783 419.423 420.989 415.629 420.989 410.949H415.34ZM399.602 313.708C404.026 306.342 415.34 309.478 415.34 318.071H420.989C420.989 303.749 402.131 298.522 394.759 310.8L399.602 313.708ZM324.738 425.072C329.698 425.072 334.293 422.471 336.846 418.219L332.003 415.311C330.471 417.862 327.714 419.423 324.738 419.423V425.072ZM272.559 413.142C272.559 419.731 277.9 425.072 284.488 425.072V419.423C281.02 419.423 278.208 416.611 278.208 413.142H272.559ZM256.821 313.237C261.245 305.87 272.559 309.006 272.559 317.599H278.208C278.208 303.278 259.35 298.051 251.978 310.328L256.821 313.237ZM181.674 425.072C186.633 425.072 191.229 422.471 193.782 418.219L188.939 415.311C187.407 417.862 184.65 419.423 181.674 419.423V425.072ZM138.6 410.949C138.6 418.749 144.923 425.072 152.722 425.072V419.423C148.043 419.423 144.249 415.629 144.249 410.949H138.6ZM467.634 199.702C467.634 200.165 467.508 200.62 467.269 201.017L462.426 198.109C462.137 198.59 461.984 199.141 461.984 199.702H467.634ZM176.77 201.978C181.45 201.978 185.244 205.772 185.244 210.452H190.893C190.893 202.652 184.57 196.329 176.77 196.329V201.978ZM453.511 425.072C461.311 425.072 467.634 418.749 467.634 410.949H461.984C461.984 415.629 458.191 419.423 453.511 419.423V425.072ZM206.632 308.166C202.208 315.533 190.893 312.397 190.893 303.804H185.244C185.244 318.125 204.102 323.352 211.475 311.075L206.632 308.166ZM152.722 196.329C144.923 196.329 138.6 202.652 138.6 210.452H144.249C144.249 205.772 148.043 201.978 152.722 201.978V196.329Z" fill="white"/>
</g>
<g filter="url(#filter0_d_10059_853)">
<path d="M515.412 204.497L531.682 204.361L551.883 279.608L573.033 204.497H587.811L608.284 279.608L628.756 204.497H644.619L617.503 299.402H599.2L579.812 229.579L560.831 299.402H542.528L515.412 204.497ZM653.189 204.497H715.148V218.326H668.781V244.628H707.013V258.051H668.781V285.573H716.775V299.402H653.189V204.497ZM726.876 204.497H747.077L777.447 279.201L807.274 204.497H827.069V299.402H812.019V229.579L783.548 299.402H770.397L741.925 229.579V299.402H726.876V204.497ZM841.734 204.497H857.325V299.402H841.734V204.497ZM871.99 299.402V204.497H886.226L932.459 271.744V204.497H947.779V299.402H933.543L887.311 232.155V299.402H871.99ZM954.761 299.402L990.283 204.497H1008.86L1044.24 299.402H1027.57L1018.62 275.947H979.708L970.895 299.402H954.761ZM984.046 262.66H1014.28L999.096 221.309L984.046 262.66ZM1051.27 299.402V204.497H1066.86V285.573H1107.67V299.402H1051.27ZM521.513 434.981V340.076H537.105V421.152H577.914V434.981H521.513ZM580.455 434.981L615.977 340.076H634.551L669.937 434.981H653.261L644.313 411.526H605.402L596.589 434.981H580.455ZM609.74 398.239H639.974L624.789 356.888L609.74 398.239ZM711.804 340.076C722.108 340.076 730.243 342.245 735.937 346.584C741.631 350.922 744.614 357.023 744.614 364.751C744.614 370.446 742.987 375.191 740.004 378.851C737.022 382.512 732.683 384.952 726.989 386.173C741.089 388.613 748.275 396.07 748.275 408.543C748.275 416.814 745.156 423.321 739.055 427.931C732.954 432.676 724.277 434.981 713.024 434.981H676.958V340.076H711.804ZM692.549 380.343H712.211C717.498 380.343 721.566 379.123 724.548 376.682C727.531 374.242 729.022 370.988 729.022 366.649C729.022 362.446 727.531 359.192 724.548 356.752C721.566 354.312 717.498 353.091 712.211 353.091H692.549V380.343ZM692.549 421.83H713.16C719.261 421.83 724.006 420.61 727.26 418.169C730.514 415.729 732.276 412.204 732.276 407.73C732.276 403.12 730.514 399.595 727.26 397.019C723.87 394.579 719.125 393.223 713.16 393.223H692.549V421.83ZM771.837 404.069C772.244 409.763 774.549 414.238 778.616 417.627C782.683 421.017 788.107 422.643 794.75 422.643C800.444 422.643 805.189 421.423 808.715 418.983C812.24 416.542 814.138 413.017 814.138 408.543C814.138 405.425 813.053 402.984 811.155 401.086C809.257 399.188 806.545 397.833 803.291 396.748C799.902 395.799 795.157 394.714 789.191 393.63C782.955 392.545 777.667 391.189 773.328 389.427C768.99 387.664 765.329 384.952 762.618 381.292C759.906 377.767 758.55 373.022 758.55 367.056C758.55 361.633 759.906 356.888 762.753 352.549C765.6 348.346 769.532 345.092 774.684 342.652C779.836 340.347 785.666 339.127 792.31 339.127C799.088 339.127 805.054 340.483 810.477 342.923C815.765 345.499 819.968 349.024 823.086 353.363C826.069 357.837 827.831 362.853 828.102 368.547H812.782C812.24 363.667 810.07 359.735 806.41 356.752C802.614 353.769 798.004 352.278 792.31 352.278C786.751 352.278 782.277 353.498 779.023 355.939C775.769 358.379 774.142 361.633 774.142 365.971C774.142 369.09 775.091 371.53 776.989 373.293C778.887 375.191 781.599 376.547 784.853 377.36C788.107 378.309 792.716 379.258 798.817 380.343C804.918 381.427 810.206 382.919 814.68 384.681C819.019 386.579 822.679 389.155 825.526 392.68C828.238 396.206 829.729 400.951 829.729 406.645C829.729 412.339 828.238 417.356 825.255 421.694C822.272 426.169 818.069 429.694 812.782 432.134C807.359 434.574 801.393 435.795 794.614 435.795C787.022 435.795 780.514 434.439 774.82 431.727C769.126 429.016 764.651 425.355 761.398 420.474C758.144 415.593 756.517 410.035 756.517 403.798L771.837 404.069Z" fill="white"/>
</g>
<defs>
<filter id="filter0_d_10059_853" x="479.412" y="168.361" width="664.254" height="303.433" filterUnits="userSpaceOnUse" color-interpolation-filters="sRGB">
<feFlood flood-opacity="0" result="BackgroundImageFix"/>
<feColorMatrix in="SourceAlpha" type="matrix" values="0 0 0 0 0 0 0 0 0 0 0 0 0 0 0 0 0 0 127 0" result="hardAlpha"/>
<feOffset/>
<feGaussianBlur stdDeviation="18"/>
<feComposite in2="hardAlpha" operator="out"/>
<feColorMatrix type="matrix" values="0 0 0 0 0 0 0 0 0 0 0 0 0 0 0 0 0 0 0.1 0"/>
<feBlend mode="normal" in2="BackgroundImageFix" result="effect1_dropShadow_10059_853"/>
<feBlend mode="normal" in="SourceGraphic" in2="effect1_dropShadow_10059_853" result="shape"/>
</filter>
</defs>
</svg>
